<?xml version="1.0" encoding="iso-8859-1"?>
<!-- Uploaded to: SVG Repo, www.svgrepo.com, Generator: SVG Repo Mixer Tools -->
<svg version="1.1" id="Layer_1" xmlns="http://www.w3.org/2000/svg" xmlns:xlink="http://www.w3.org/1999/xlink" 
	 viewBox="0 0 512 512" xml:space="preserve">
<path style="fill:#FFFFFF;" d="M4,462.4V113.6h504v303.856c-0.016,24.808-20.12,44.92-44.928,44.944H4z"/>
<path style="fill:#AAC1CE;" d="M504,117.6v299.856c-0.016,22.6-18.32,40.92-40.92,40.944H8V117.6H504 M512,109.6H0v356.8h463.08
	c27.016,0,48.92-21.904,48.92-48.92c0-0.008,0-0.016,0-0.024V109.6z"/>
<path style="fill:#25B6D2;" d="M31.92,45.6h448.16c17.632,0,31.92,14.288,31.92,31.92c0,0.008,0,0.016,0,0.024v32.184H0V77.544
	C-0.016,59.912,14.264,45.616,31.896,45.6C31.904,45.6,31.912,45.6,31.92,45.6z"/>
<g style="opacity:0.7;">
	<circle style="fill:#FFFFFF;" cx="44.192" cy="77.68" r="8.928"/>
</g>
<g style="opacity:0.7;">
	<circle style="fill:#FFFFFF;" cx="70.968" cy="77.68" r="8.928"/>
</g>
<g style="opacity:0.7;">
	<circle style="fill:#FFFFFF;" cx="97.736" cy="77.68" r="8.928"/>
</g>
<polygon style="fill:#FFFFFF;" points="460.928,93.36 143.088,93.36 159.088,62.008 460.928,62.008 "/>
<g>
	<path style="fill:#415E72;" d="M171.92,71.408l1.312,5.696c0.28,1.336,0.56,2.704,0.8,4.072h0.048
		c0.256-1.368,0.672-2.76,1.032-4.048l1.6-5.72h2.576l1.6,5.6c0.384,1.464,0.72,2.832,1,4.192h0.056
		c0.2-1.368,0.496-2.736,0.8-4.192l1.392-5.6h3.112l-3.936,12.544h-2.936l-1.496-5.104c-0.384-1.312-0.704-2.648-0.952-4h-0.056
		c-0.232,1.352-0.552,2.688-0.952,4l-1.6,5.104h-2.96l-3.712-12.544H171.92z"/>
	<path style="fill:#415E72;" d="M192.272,71.408l1.312,5.696c0.28,1.336,0.56,2.704,0.8,4.072h0.016
		c0.248-1.368,0.664-2.76,1.024-4.048l1.6-5.72h2.576l1.6,5.6c0.384,1.464,0.72,2.832,1,4.192h0.056
		c0.2-1.368,0.496-2.736,0.8-4.192l1.392-5.6h3.12l-3.944,12.544h-2.936l-1.496-5.104c-0.384-1.312-0.704-2.648-0.952-4l0,0
		c-0.232,1.352-0.552,2.688-0.952,4l-1.6,5.104h-2.96l-3.712-12.544H192.272z"/>
	<path style="fill:#415E72;" d="M212.624,71.408l1.312,5.696c0.28,1.336,0.56,2.704,0.8,4.072h0.048
		c0.256-1.368,0.672-2.76,1.032-4.048l1.6-5.72H220l1.6,5.6c0.384,1.464,0.72,2.832,1,4.192h0.056c0.2-1.368,0.496-2.736,0.8-4.192
		l1.392-5.6H228l-4,12.544h-2.936l-1.496-5.104c-0.384-1.312-0.704-2.648-0.952-4h-0.056c-0.232,1.352-0.552,2.688-0.952,4
		l-1.6,5.104h-2.96l-3.712-12.544L212.624,71.408z"/>
	<path style="fill:#415E72;" d="M229.128,82.2c-0.056-1.064,0.76-1.976,1.832-2.04c0.04,0,0.088,0,0.128,0
		c1.128,0.072,1.976,1.04,1.912,2.16c-0.064,1.024-0.88,1.84-1.912,1.912c-1.064,0.016-1.944-0.832-1.96-1.896
		C229.128,82.296,229.128,82.248,229.128,82.2z"/>
</g>
<g>
	<rect x="422.816" y="75.68" style="fill:#E04F5F;" width="21.568" height="4"/>
	<polygon style="fill:#E04F5F;" points="438.24,88.592 435.408,85.768 443.504,77.68 435.408,69.584 438.24,66.76 449.16,77.68 	"/>
</g>
<path style="fill:#25B6D2;" d="M414.448,200.28v98.752H97.552V200.28H414.448 M422.448,192.28H89.552v114.752h332.896V192.28z"/>
<g>
	<path style="fill:#E04F5F;" d="M150.328,281.072l-2.264-58.832h12.656l0.088,26.184c-0.088,7.072-0.168,13.792-0.352,19.024h0.176
		c2.008-5.76,4.184-11.696,6.888-18.848l10.56-26.36h13.792l-0.168,26.272c-0.088,7.072-0.264,12.912-0.52,18.68h0.168
		c2.008-6.112,4.184-12.488,6.464-18.768L208,222.24h13.2l-25.92,58.832H181.6l-0.44-24.176c0-6.888,0.168-12.8,0.52-19.464h-0.168
		c-2.184,6.288-4.192,12.568-7.16,19.816l-10.04,23.832L150.328,281.072z"/>
	<path style="fill:#E04F5F;" d="M225.72,281.072l-2.264-58.832h12.656l0.088,26.184c-0.088,7.072-0.168,13.792-0.352,19.024H236
		c2.008-5.76,4.184-11.696,6.888-18.848l10.56-26.36h13.792l-0.168,26.272c-0.088,7.072-0.264,12.912-0.52,18.68h0.168
		c2.008-6.112,4.184-12.488,6.464-18.768l10.208-26.184h13.176l-25.92,58.832h-13.672l-0.44-24.176c0-6.888,0.168-12.8,0.52-19.464
		h-0.168c-2.184,6.288-4.192,12.568-7.16,19.816l-10.04,23.832L225.72,281.072z"/>
	<path style="fill:#E04F5F;" d="M301.12,281.072l-2.264-58.832h12.656l0.088,26.184c-0.088,7.072-0.168,13.792-0.352,19.024h0.176
		c2.008-5.76,4.184-11.696,6.888-18.848l10.56-26.36h13.792l-0.168,26.272c-0.088,7.072-0.264,12.912-0.52,18.68h0.168
		c2.008-6.112,4.184-12.488,6.464-18.768l10.208-26.184H372l-25.92,58.832h-13.704l-0.44-24.176c0-6.888,0.168-12.8,0.52-19.464
		h-0.168c-2.184,6.288-4.192,12.568-7.16,19.816l-10.04,23.832L301.12,281.072z"/>
</g>
<g>
	
		<rect x="291.444" y="361.579" transform="matrix(0.7071 -0.7071 0.7071 0.7071 -190.9452 332.975)" style="fill:#415E72;" width="30.04" height="70.799"/>
	<polygon style="fill:#415E72;" points="249.608,404.896 235.872,327.64 313.12,341.376 	"/>
</g>
</svg>