<svg id="visual" viewBox="0 0 900 600" width="900" height="600" xmlns="http://www.w3.org/2000/svg" xmlns:xlink="http://www.w3.org/1999/xlink" version="1.1"><g stroke-width="1" stroke-linejoin="bevel"><path d="M442 322L424 287L418 324Z" fill="#333333" stroke="#333333"></path><path d="M424 287L375 278L418 324Z" fill="#2e2e2e" stroke="#2e2e2e"></path><path d="M424 287L376 274L375 278Z" fill="#292929" stroke="#292929"></path><path d="M511 298L452 244L424 287Z" fill="#383838" stroke="#383838"></path><path d="M424 287L376 232L376 274Z" fill="#1f1f1f" stroke="#1f1f1f"></path><path d="M375 278L374 349L418 324Z" fill="#161616" stroke="#161616"></path><path d="M418 324L448 409L442 322Z" fill="#292929" stroke="#292929"></path><path d="M513 349L511 298L442 322Z" fill="#333333" stroke="#333333"></path><path d="M442 322L511 298L424 287Z" fill="#242424" stroke="#242424"></path><path d="M452 244L376 232L424 287Z" fill="#161616" stroke="#161616"></path><path d="M376 274L344 247L375 278Z" fill="#090909" stroke="#090909"></path><path d="M448 409L513 349L442 322Z" fill="#383838" stroke="#383838"></path><path d="M374 349L407 408L418 324Z" fill="#292929" stroke="#292929"></path><path d="M376 232L344 247L376 274Z" fill="#333333" stroke="#333333"></path><path d="M375 278L288 299L374 349Z" fill="#000000" stroke="#000000"></path><path d="M407 408L448 409L418 324Z" fill="#090909" stroke="#090909"></path><path d="M513 349L539 322L511 298Z" fill="#333333" stroke="#333333"></path><path d="M492 207L448 197L452 244Z" fill="#383838" stroke="#383838"></path><path d="M492 207L452 244L522 227Z" fill="#090909" stroke="#090909"></path><path d="M452 244L415 195L376 232Z" fill="#1f1f1f" stroke="#1f1f1f"></path><path d="M376 232L329 212L344 247Z" fill="#000000" stroke="#000000"></path><path d="M448 197L415 195L452 244Z" fill="#000000" stroke="#000000"></path><path d="M522 227L452 244L511 298Z" fill="#1f1f1f" stroke="#1f1f1f"></path><path d="M283 357L335 383L374 349Z" fill="#292929" stroke="#292929"></path><path d="M374 349L335 383L407 408Z" fill="#383838" stroke="#383838"></path><path d="M546 248L522 227L511 298Z" fill="#1a1a1a" stroke="#1a1a1a"></path><path d="M539 322L546 248L511 298Z" fill="#333333" stroke="#333333"></path><path d="M365 172L329 212L376 232Z" fill="#1f1f1f" stroke="#1f1f1f"></path><path d="M344 247L288 299L375 278Z" fill="#242424" stroke="#242424"></path><path d="M298 240L288 299L344 247Z" fill="#090909" stroke="#090909"></path><path d="M556 386L560 371L513 349Z" fill="#1f1f1f" stroke="#1f1f1f"></path><path d="M513 349L560 371L539 322Z" fill="#333333" stroke="#333333"></path><path d="M539 322L595 291L546 248Z" fill="#2e2e2e" stroke="#2e2e2e"></path><path d="M329 212L298 240L344 247Z" fill="#383838" stroke="#383838"></path><path d="M522 227L499 178L492 207Z" fill="#1a1a1a" stroke="#1a1a1a"></path><path d="M492 207L499 178L448 197Z" fill="#161616" stroke="#161616"></path><path d="M448 197L437 148L415 195Z" fill="#090909" stroke="#090909"></path><path d="M415 195L365 172L376 232Z" fill="#292929" stroke="#292929"></path><path d="M569 179L499 178L522 227Z" fill="#000000" stroke="#000000"></path><path d="M407 408L449 454L448 409Z" fill="#1f1f1f" stroke="#1f1f1f"></path><path d="M525 428L556 386L513 349Z" fill="#242424" stroke="#242424"></path><path d="M391 453L449 454L407 408Z" fill="#333333" stroke="#333333"></path><path d="M394 149L365 172L415 195Z" fill="#161616" stroke="#161616"></path><path d="M329 212L320 195L298 240Z" fill="#242424" stroke="#242424"></path><path d="M525 428L513 349L448 409Z" fill="#101010" stroke="#101010"></path><path d="M335 383L391 453L407 408Z" fill="#242424" stroke="#242424"></path><path d="M288 299L283 357L374 349Z" fill="#383838" stroke="#383838"></path><path d="M335 383L347 465L391 453Z" fill="#333333" stroke="#333333"></path><path d="M481 453L525 428L448 409Z" fill="#383838" stroke="#383838"></path><path d="M449 454L481 453L448 409Z" fill="#1a1a1a" stroke="#1a1a1a"></path><path d="M365 172L320 195L329 212Z" fill="#383838" stroke="#383838"></path><path d="M499 178L437 148L448 197Z" fill="#1a1a1a" stroke="#1a1a1a"></path><path d="M437 148L394 149L415 195Z" fill="#000000" stroke="#000000"></path><path d="M365 172L292 130L320 195Z" fill="#101010" stroke="#101010"></path><path d="M596 348L539 322L560 371Z" fill="#333333" stroke="#333333"></path><path d="M596 348L595 291L539 322Z" fill="#333333" stroke="#333333"></path><path d="M546 248L569 179L522 227Z" fill="#292929" stroke="#292929"></path><path d="M255 287L261 323L288 299Z" fill="#1f1f1f" stroke="#1f1f1f"></path><path d="M288 299L261 323L283 357Z" fill="#101010" stroke="#101010"></path><path d="M264 227L265 255L298 240Z" fill="#2e2e2e" stroke="#2e2e2e"></path><path d="M298 240L265 255L288 299Z" fill="#090909" stroke="#090909"></path><path d="M595 422L560 371L556 386Z" fill="#333333" stroke="#333333"></path><path d="M631 384L596 348L560 371Z" fill="#1a1a1a" stroke="#1a1a1a"></path><path d="M391 453L448 480L449 454Z" fill="#242424" stroke="#242424"></path><path d="M449 454L448 480L481 453Z" fill="#292929" stroke="#292929"></path><path d="M564 462L573 430L525 428Z" fill="#333333" stroke="#333333"></path><path d="M265 255L255 287L288 299Z" fill="#1f1f1f" stroke="#1f1f1f"></path><path d="M318 449L335 383L288 424Z" fill="#1a1a1a" stroke="#1a1a1a"></path><path d="M318 449L347 465L335 383Z" fill="#383838" stroke="#383838"></path><path d="M391 453L424 518L448 480Z" fill="#000000" stroke="#000000"></path><path d="M288 424L335 383L283 357Z" fill="#000000" stroke="#000000"></path><path d="M292 130L264 227L320 195Z" fill="#383838" stroke="#383838"></path><path d="M320 195L264 227L298 240Z" fill="#101010" stroke="#101010"></path><path d="M180 317L192 328L255 287Z" fill="#292929" stroke="#292929"></path><path d="M254 418L288 424L283 357Z" fill="#161616" stroke="#161616"></path><path d="M437 148L423 120L394 149Z" fill="#383838" stroke="#383838"></path><path d="M354 76L292 130L365 172Z" fill="#000000" stroke="#000000"></path><path d="M471 76L423 120L437 148Z" fill="#242424" stroke="#242424"></path><path d="M314 486L371 487L347 465Z" fill="#2e2e2e" stroke="#2e2e2e"></path><path d="M347 465L371 487L391 453Z" fill="#090909" stroke="#090909"></path><path d="M606 198L569 179L546 248Z" fill="#292929" stroke="#292929"></path><path d="M499 178L499 86L437 148Z" fill="#333333" stroke="#333333"></path><path d="M564 462L525 428L533 499Z" fill="#292929" stroke="#292929"></path><path d="M525 428L573 430L556 386Z" fill="#2e2e2e" stroke="#2e2e2e"></path><path d="M424 518L473 496L448 480Z" fill="#000000" stroke="#000000"></path><path d="M448 480L473 496L481 453Z" fill="#000000" stroke="#000000"></path><path d="M650 277L627 269L595 291Z" fill="#333333" stroke="#333333"></path><path d="M595 291L627 269L546 248Z" fill="#090909" stroke="#090909"></path><path d="M650 277L595 291L596 348Z" fill="#1f1f1f" stroke="#1f1f1f"></path><path d="M564 462L595 422L573 430Z" fill="#333333" stroke="#333333"></path><path d="M573 430L595 422L556 386Z" fill="#292929" stroke="#292929"></path><path d="M471 76L403 104L423 120Z" fill="#1f1f1f" stroke="#1f1f1f"></path><path d="M423 120L403 104L394 149Z" fill="#161616" stroke="#161616"></path><path d="M533 499L525 428L481 453Z" fill="#383838" stroke="#383838"></path><path d="M219 411L254 418L283 357Z" fill="#1a1a1a" stroke="#1a1a1a"></path><path d="M250 449L314 486L318 449Z" fill="#090909" stroke="#090909"></path><path d="M318 449L314 486L347 465Z" fill="#1a1a1a" stroke="#1a1a1a"></path><path d="M219 411L283 357L261 323Z" fill="#292929" stroke="#292929"></path><path d="M627 269L606 198L546 248Z" fill="#1f1f1f" stroke="#1f1f1f"></path><path d="M371 487L424 518L391 453Z" fill="#1f1f1f" stroke="#1f1f1f"></path><path d="M473 496L533 499L481 453Z" fill="#2e2e2e" stroke="#2e2e2e"></path><path d="M250 449L318 449L288 424Z" fill="#242424" stroke="#242424"></path><path d="M371 487L384 542L424 518Z" fill="#292929" stroke="#292929"></path><path d="M672 367L631 384L673 438Z" fill="#292929" stroke="#292929"></path><path d="M595 422L631 384L560 371Z" fill="#333333" stroke="#333333"></path><path d="M474 548L533 499L473 496Z" fill="#1a1a1a" stroke="#1a1a1a"></path><path d="M564 462L579 483L595 422Z" fill="#161616" stroke="#161616"></path><path d="M672 367L650 277L596 348Z" fill="#242424" stroke="#242424"></path><path d="M627 269L653 224L606 198Z" fill="#242424" stroke="#242424"></path><path d="M354 76L365 172L394 149Z" fill="#242424" stroke="#242424"></path><path d="M615 158L569 179L606 198Z" fill="#101010" stroke="#101010"></path><path d="M615 158L570 133L569 179Z" fill="#333333" stroke="#333333"></path><path d="M569 179L570 133L499 178Z" fill="#1f1f1f" stroke="#1f1f1f"></path><path d="M219 411L250 449L254 418Z" fill="#1f1f1f" stroke="#1f1f1f"></path><path d="M254 418L250 449L288 424Z" fill="#101010" stroke="#101010"></path><path d="M533 499L579 483L564 462Z" fill="#2e2e2e" stroke="#2e2e2e"></path><path d="M570 133L499 86L499 178Z" fill="#1f1f1f" stroke="#1f1f1f"></path><path d="M192 328L219 411L261 323Z" fill="#242424" stroke="#242424"></path><path d="M192 328L261 323L255 287Z" fill="#1f1f1f" stroke="#1f1f1f"></path><path d="M499 86L471 76L437 148Z" fill="#161616" stroke="#161616"></path><path d="M403 104L354 76L394 149Z" fill="#101010" stroke="#101010"></path><path d="M283 529L330 521L314 486Z" fill="#242424" stroke="#242424"></path><path d="M314 486L330 521L371 487Z" fill="#000000" stroke="#000000"></path><path d="M174 261L265 255L179 232Z" fill="#1a1a1a" stroke="#1a1a1a"></path><path d="M180 317L255 287L174 261Z" fill="#1f1f1f" stroke="#1f1f1f"></path><path d="M653 224L615 158L606 198Z" fill="#000000" stroke="#000000"></path><path d="M570 133L562 99L499 86Z" fill="#101010" stroke="#101010"></path><path d="M671 239L653 224L627 269Z" fill="#161616" stroke="#161616"></path><path d="M330 521L384 542L371 487Z" fill="#090909" stroke="#090909"></path><path d="M424 518L474 548L473 496Z" fill="#000000" stroke="#000000"></path><path d="M372 53L354 76L403 104Z" fill="#101010" stroke="#101010"></path><path d="M232 128L220 181L292 130Z" fill="#090909" stroke="#090909"></path><path d="M292 130L220 181L264 227Z" fill="#090909" stroke="#090909"></path><path d="M429 600L474 548L424 518Z" fill="#101010" stroke="#101010"></path><path d="M533 499L545 564L579 483Z" fill="#090909" stroke="#090909"></path><path d="M589 86L562 99L570 133Z" fill="#090909" stroke="#090909"></path><path d="M499 86L525 46L471 76Z" fill="#292929" stroke="#292929"></path><path d="M174 261L255 287L265 255Z" fill="#383838" stroke="#383838"></path><path d="M192 328L187 432L219 411Z" fill="#1a1a1a" stroke="#1a1a1a"></path><path d="M673 438L631 384L595 422Z" fill="#1f1f1f" stroke="#1f1f1f"></path><path d="M631 384L672 367L596 348Z" fill="#292929" stroke="#292929"></path><path d="M650 277L671 239L627 269Z" fill="#000000" stroke="#000000"></path><path d="M692 316L671 239L650 277Z" fill="#000000" stroke="#000000"></path><path d="M653 224L689 176L615 158Z" fill="#333333" stroke="#333333"></path><path d="M179 232L265 255L264 227Z" fill="#383838" stroke="#383838"></path><path d="M717 196L675 226L745 224Z" fill="#383838" stroke="#383838"></path><path d="M671 239L675 226L653 224Z" fill="#090909" stroke="#090909"></path><path d="M471 76L372 53L403 104Z" fill="#1f1f1f" stroke="#1f1f1f"></path><path d="M267 84L232 128L292 130Z" fill="#1f1f1f" stroke="#1f1f1f"></path><path d="M220 181L179 232L264 227Z" fill="#1f1f1f" stroke="#1f1f1f"></path><path d="M672 367L692 316L650 277Z" fill="#1f1f1f" stroke="#1f1f1f"></path><path d="M250 524L283 529L314 486Z" fill="#2e2e2e" stroke="#2e2e2e"></path><path d="M358 600L388 600L384 542Z" fill="#242424" stroke="#242424"></path><path d="M250 524L314 486L250 449Z" fill="#101010" stroke="#101010"></path><path d="M287 71L292 130L354 76Z" fill="#2e2e2e" stroke="#2e2e2e"></path><path d="M220 181L167 195L179 232Z" fill="#161616" stroke="#161616"></path><path d="M174 261L162 322L180 317Z" fill="#2e2e2e" stroke="#2e2e2e"></path><path d="M180 317L162 322L192 328Z" fill="#1f1f1f" stroke="#1f1f1f"></path><path d="M219 411L187 432L250 449Z" fill="#2e2e2e" stroke="#2e2e2e"></path><path d="M121 338L162 322L117 257Z" fill="#1f1f1f" stroke="#1f1f1f"></path><path d="M474 548L517 560L533 499Z" fill="#000000" stroke="#000000"></path><path d="M511 600L517 560L474 548Z" fill="#161616" stroke="#161616"></path><path d="M545 564L517 560L511 600Z" fill="#2e2e2e" stroke="#2e2e2e"></path><path d="M158 435L187 432L137 427Z" fill="#242424" stroke="#242424"></path><path d="M615 158L589 86L570 133Z" fill="#000000" stroke="#000000"></path><path d="M562 99L525 46L499 86Z" fill="#161616" stroke="#161616"></path><path d="M425 0L354 28L372 53Z" fill="#292929" stroke="#292929"></path><path d="M671 128L589 86L615 158Z" fill="#333333" stroke="#333333"></path><path d="M589 86L573 75L562 99Z" fill="#1a1a1a" stroke="#1a1a1a"></path><path d="M292 53L287 71L354 76Z" fill="#1f1f1f" stroke="#1f1f1f"></path><path d="M287 71L267 84L292 130Z" fill="#000000" stroke="#000000"></path><path d="M684 478L673 438L675 492Z" fill="#161616" stroke="#161616"></path><path d="M579 483L673 438L595 422Z" fill="#1f1f1f" stroke="#1f1f1f"></path><path d="M672 367L717 358L692 316Z" fill="#242424" stroke="#242424"></path><path d="M573 75L525 46L562 99Z" fill="#1a1a1a" stroke="#1a1a1a"></path><path d="M234 525L250 524L250 449Z" fill="#383838" stroke="#383838"></path><path d="M429 600L424 518L384 542Z" fill="#161616" stroke="#161616"></path><path d="M517 560L545 564L533 499Z" fill="#242424" stroke="#242424"></path><path d="M184 153L220 181L232 128Z" fill="#333333" stroke="#333333"></path><path d="M184 153L167 195L220 181Z" fill="#090909" stroke="#090909"></path><path d="M179 232L117 257L174 261Z" fill="#101010" stroke="#101010"></path><path d="M287 71L248 60L267 84Z" fill="#1f1f1f" stroke="#1f1f1f"></path><path d="M215 110L184 153L232 128Z" fill="#333333" stroke="#333333"></path><path d="M354 28L292 53L354 76Z" fill="#2e2e2e" stroke="#2e2e2e"></path><path d="M354 28L354 76L372 53Z" fill="#1a1a1a" stroke="#1a1a1a"></path><path d="M425 0L372 53L471 76Z" fill="#000000" stroke="#000000"></path><path d="M215 110L232 128L267 84Z" fill="#101010" stroke="#101010"></path><path d="M227 71L215 110L267 84Z" fill="#333333" stroke="#333333"></path><path d="M717 196L689 176L675 226Z" fill="#090909" stroke="#090909"></path><path d="M675 226L689 176L653 224Z" fill="#1a1a1a" stroke="#1a1a1a"></path><path d="M310 600L330 521L283 529Z" fill="#242424" stroke="#242424"></path><path d="M388 600L429 600L384 542Z" fill="#090909" stroke="#090909"></path><path d="M180 495L234 525L250 449Z" fill="#242424" stroke="#242424"></path><path d="M727 403L717 358L672 367Z" fill="#000000" stroke="#000000"></path><path d="M745 224L675 226L671 239Z" fill="#2e2e2e" stroke="#2e2e2e"></path><path d="M384 542L330 521L358 600Z" fill="#1a1a1a" stroke="#1a1a1a"></path><path d="M358 600L330 521L310 600Z" fill="#1a1a1a" stroke="#1a1a1a"></path><path d="M137 427L187 432L192 328Z" fill="#090909" stroke="#090909"></path><path d="M180 495L221 538L234 525Z" fill="#1a1a1a" stroke="#1a1a1a"></path><path d="M689 176L671 128L615 158Z" fill="#383838" stroke="#383838"></path><path d="M589 86L606 59L573 75Z" fill="#2e2e2e" stroke="#2e2e2e"></path><path d="M573 75L556 0L525 46Z" fill="#242424" stroke="#242424"></path><path d="M277 600L283 529L250 524Z" fill="#161616" stroke="#161616"></path><path d="M429 600L511 600L474 548Z" fill="#161616" stroke="#161616"></path><path d="M675 492L673 438L579 483Z" fill="#000000" stroke="#000000"></path><path d="M677 106L606 59L589 86Z" fill="#242424" stroke="#242424"></path><path d="M259 0L248 60L292 53Z" fill="#242424" stroke="#242424"></path><path d="M292 53L248 60L287 71Z" fill="#000000" stroke="#000000"></path><path d="M215 110L156 132L184 153Z" fill="#090909" stroke="#090909"></path><path d="M466 0L425 0L471 76Z" fill="#101010" stroke="#101010"></path><path d="M354 28L326 0L292 53Z" fill="#383838" stroke="#383838"></path><path d="M466 0L471 76L525 46Z" fill="#2e2e2e" stroke="#2e2e2e"></path><path d="M675 492L579 483L671 529Z" fill="#161616" stroke="#161616"></path><path d="M673 438L727 403L672 367Z" fill="#090909" stroke="#090909"></path><path d="M590 577L579 483L545 564Z" fill="#000000" stroke="#000000"></path><path d="M749 155L677 106L671 128Z" fill="#242424" stroke="#242424"></path><path d="M740 273L671 239L692 316Z" fill="#101010" stroke="#101010"></path><path d="M518 0L466 0L525 46Z" fill="#090909" stroke="#090909"></path><path d="M117 257L162 322L174 261Z" fill="#383838" stroke="#383838"></path><path d="M162 322L137 427L192 328Z" fill="#333333" stroke="#333333"></path><path d="M248 60L227 71L267 84Z" fill="#292929" stroke="#292929"></path><path d="M180 495L250 449L187 432Z" fill="#383838" stroke="#383838"></path><path d="M234 525L221 538L250 524Z" fill="#161616" stroke="#161616"></path><path d="M134 522L180 495L109 487Z" fill="#383838" stroke="#383838"></path><path d="M158 435L180 495L187 432Z" fill="#1f1f1f" stroke="#1f1f1f"></path><path d="M743 328L740 273L692 316Z" fill="#101010" stroke="#101010"></path><path d="M738 417L727 403L736 436Z" fill="#242424" stroke="#242424"></path><path d="M717 358L743 328L692 316Z" fill="#383838" stroke="#383838"></path><path d="M561 600L590 577L545 564Z" fill="#101010" stroke="#101010"></path><path d="M727 403L743 328L717 358Z" fill="#101010" stroke="#101010"></path><path d="M121 338L137 427L162 322Z" fill="#1f1f1f" stroke="#1f1f1f"></path><path d="M123 175L117 257L167 195Z" fill="#161616" stroke="#161616"></path><path d="M167 195L117 257L179 232Z" fill="#161616" stroke="#161616"></path><path d="M123 175L167 195L184 153Z" fill="#1a1a1a" stroke="#1a1a1a"></path><path d="M277 600L310 600L283 529Z" fill="#1f1f1f" stroke="#1f1f1f"></path><path d="M749 155L671 128L689 176Z" fill="#000000" stroke="#000000"></path><path d="M671 128L677 106L589 86Z" fill="#292929" stroke="#292929"></path><path d="M556 0L518 0L525 46Z" fill="#000000" stroke="#000000"></path><path d="M556 0L573 75L606 59Z" fill="#242424" stroke="#242424"></path><path d="M511 600L561 600L545 564Z" fill="#090909" stroke="#090909"></path><path d="M248 60L212 0L227 71Z" fill="#000000" stroke="#000000"></path><path d="M425 0L326 0L354 28Z" fill="#161616" stroke="#161616"></path><path d="M136 87L156 132L215 110Z" fill="#383838" stroke="#383838"></path><path d="M776 208L745 224L823 252Z" fill="#292929" stroke="#292929"></path><path d="M740 273L745 224L671 239Z" fill="#1f1f1f" stroke="#1f1f1f"></path><path d="M712 66L677 80L677 106Z" fill="#242424" stroke="#242424"></path><path d="M675 492L709 477L684 478Z" fill="#161616" stroke="#161616"></path><path d="M684 478L709 477L673 438Z" fill="#292929" stroke="#292929"></path><path d="M739 525L709 477L675 492Z" fill="#2e2e2e" stroke="#2e2e2e"></path><path d="M736 436L727 403L673 438Z" fill="#383838" stroke="#383838"></path><path d="M808 395L813 341L743 328Z" fill="#2e2e2e" stroke="#2e2e2e"></path><path d="M590 577L671 529L579 483Z" fill="#383838" stroke="#383838"></path><path d="M670 571L671 529L590 577Z" fill="#161616" stroke="#161616"></path><path d="M213 600L277 600L221 538Z" fill="#000000" stroke="#000000"></path><path d="M221 538L277 600L250 524Z" fill="#292929" stroke="#292929"></path><path d="M72 315L104 376L121 338Z" fill="#383838" stroke="#383838"></path><path d="M121 338L104 376L137 427Z" fill="#1f1f1f" stroke="#1f1f1f"></path><path d="M134 522L154 527L180 495Z" fill="#161616" stroke="#161616"></path><path d="M626 0L556 0L606 59Z" fill="#101010" stroke="#101010"></path><path d="M104 376L111 405L137 427Z" fill="#292929" stroke="#292929"></path><path d="M156 132L123 175L184 153Z" fill="#161616" stroke="#161616"></path><path d="M117 257L92 277L121 338Z" fill="#333333" stroke="#333333"></path><path d="M709 477L736 436L673 438Z" fill="#101010" stroke="#101010"></path><path d="M326 0L297 0L292 53Z" fill="#161616" stroke="#161616"></path><path d="M136 87L127 142L156 132Z" fill="#242424" stroke="#242424"></path><path d="M749 155L689 176L717 196Z" fill="#161616" stroke="#161616"></path><path d="M677 106L677 80L606 59Z" fill="#292929" stroke="#292929"></path><path d="M70 238L92 277L117 257Z" fill="#000000" stroke="#000000"></path><path d="M561 600L605 600L590 577Z" fill="#383838" stroke="#383838"></path><path d="M156 132L127 142L123 175Z" fill="#292929" stroke="#292929"></path><path d="M70 238L72 315L92 277Z" fill="#000000" stroke="#000000"></path><path d="M136 87L215 110L162 55Z" fill="#1f1f1f" stroke="#1f1f1f"></path><path d="M297 0L259 0L292 53Z" fill="#383838" stroke="#383838"></path><path d="M677 80L634 21L606 59Z" fill="#090909" stroke="#090909"></path><path d="M180 495L158 435L109 487Z" fill="#000000" stroke="#000000"></path><path d="M180 495L154 527L221 538Z" fill="#101010" stroke="#101010"></path><path d="M776 208L749 155L717 196Z" fill="#101010" stroke="#101010"></path><path d="M631 0L626 0L634 21Z" fill="#1a1a1a" stroke="#1a1a1a"></path><path d="M776 208L717 196L745 224Z" fill="#2e2e2e" stroke="#2e2e2e"></path><path d="M57 461L85 475L111 405Z" fill="#000000" stroke="#000000"></path><path d="M109 487L158 435L137 427Z" fill="#242424" stroke="#242424"></path><path d="M92 277L72 315L121 338Z" fill="#000000" stroke="#000000"></path><path d="M70 238L117 257L123 175Z" fill="#292929" stroke="#292929"></path><path d="M605 600L670 571L590 577Z" fill="#2e2e2e" stroke="#2e2e2e"></path><path d="M671 529L739 525L675 492Z" fill="#1f1f1f" stroke="#1f1f1f"></path><path d="M709 477L776 515L736 436Z" fill="#101010" stroke="#101010"></path><path d="M745 224L740 273L823 252Z" fill="#101010" stroke="#101010"></path><path d="M795 196L776 208L823 252Z" fill="#090909" stroke="#090909"></path><path d="M740 273L743 328L812 292Z" fill="#333333" stroke="#333333"></path><path d="M168 600L213 600L221 538Z" fill="#000000" stroke="#000000"></path><path d="M631 0L634 21L681 0Z" fill="#242424" stroke="#242424"></path><path d="M634 21L626 0L606 59Z" fill="#333333" stroke="#333333"></path><path d="M109 487L137 427L85 475Z" fill="#161616" stroke="#161616"></path><path d="M154 527L168 600L221 538Z" fill="#161616" stroke="#161616"></path><path d="M50 202L70 238L123 175Z" fill="#2e2e2e" stroke="#2e2e2e"></path><path d="M162 55L215 110L227 71Z" fill="#1f1f1f" stroke="#1f1f1f"></path><path d="M48 124L50 202L123 175Z" fill="#242424" stroke="#242424"></path><path d="M212 0L162 55L227 71Z" fill="#161616" stroke="#161616"></path><path d="M85 475L137 427L111 405Z" fill="#333333" stroke="#333333"></path><path d="M681 0L634 21L677 80Z" fill="#242424" stroke="#242424"></path><path d="M773 82L712 66L749 155Z" fill="#383838" stroke="#383838"></path><path d="M749 155L712 66L677 106Z" fill="#2e2e2e" stroke="#2e2e2e"></path><path d="M259 0L212 0L248 60Z" fill="#000000" stroke="#000000"></path><path d="M605 600L664 600L670 571Z" fill="#292929" stroke="#292929"></path><path d="M670 571L739 525L671 529Z" fill="#242424" stroke="#242424"></path><path d="M117 0L123 83L162 55Z" fill="#333333" stroke="#333333"></path><path d="M162 55L123 83L136 87Z" fill="#242424" stroke="#242424"></path><path d="M136 87L123 83L127 142Z" fill="#292929" stroke="#292929"></path><path d="M681 600L739 525L670 571Z" fill="#333333" stroke="#333333"></path><path d="M743 328L727 403L808 395Z" fill="#242424" stroke="#242424"></path><path d="M57 461L111 405L33 394Z" fill="#333333" stroke="#333333"></path><path d="M71 527L126 552L134 522Z" fill="#2e2e2e" stroke="#2e2e2e"></path><path d="M134 522L126 552L154 527Z" fill="#1a1a1a" stroke="#1a1a1a"></path><path d="M812 292L743 328L813 341Z" fill="#161616" stroke="#161616"></path><path d="M776 208L795 196L749 155Z" fill="#101010" stroke="#101010"></path><path d="M727 403L738 417L808 395Z" fill="#2e2e2e" stroke="#2e2e2e"></path><path d="M808 395L738 417L736 436Z" fill="#242424" stroke="#242424"></path><path d="M0 309L43 335L72 315Z" fill="#101010" stroke="#101010"></path><path d="M72 315L43 335L104 376Z" fill="#000000" stroke="#000000"></path><path d="M664 600L681 600L670 571Z" fill="#1f1f1f" stroke="#1f1f1f"></path><path d="M795 196L778 136L749 155Z" fill="#242424" stroke="#242424"></path><path d="M824 462L808 395L736 436Z" fill="#000000" stroke="#000000"></path><path d="M71 527L134 522L109 487Z" fill="#101010" stroke="#101010"></path><path d="M126 552L168 600L154 527Z" fill="#161616" stroke="#161616"></path><path d="M48 124L123 175L127 142Z" fill="#2e2e2e" stroke="#2e2e2e"></path><path d="M70 238L0 309L72 315Z" fill="#101010" stroke="#101010"></path><path d="M712 66L681 0L677 80Z" fill="#000000" stroke="#000000"></path><path d="M723 0L681 0L712 66Z" fill="#242424" stroke="#242424"></path><path d="M812 292L823 252L740 273Z" fill="#101010" stroke="#101010"></path><path d="M795 196L829 129L778 136Z" fill="#000000" stroke="#000000"></path><path d="M836 256L823 252L812 292Z" fill="#090909" stroke="#090909"></path><path d="M860 322L812 292L813 341Z" fill="#1a1a1a" stroke="#1a1a1a"></path><path d="M85 475L71 527L109 487Z" fill="#101010" stroke="#101010"></path><path d="M33 394L111 405L104 376Z" fill="#090909" stroke="#090909"></path><path d="M802 566L776 515L739 525Z" fill="#000000" stroke="#000000"></path><path d="M739 525L776 515L709 477Z" fill="#101010" stroke="#101010"></path><path d="M0 336L33 394L43 335Z" fill="#383838" stroke="#383838"></path><path d="M43 335L33 394L104 376Z" fill="#000000" stroke="#000000"></path><path d="M854 376L833 363L808 395Z" fill="#1a1a1a" stroke="#1a1a1a"></path><path d="M808 395L833 363L813 341Z" fill="#383838" stroke="#383838"></path><path d="M860 322L836 256L812 292Z" fill="#292929" stroke="#292929"></path><path d="M823 252L863 228L795 196Z" fill="#242424" stroke="#242424"></path><path d="M810 84L773 82L778 136Z" fill="#1f1f1f" stroke="#1f1f1f"></path><path d="M778 136L773 82L749 155Z" fill="#383838" stroke="#383838"></path><path d="M773 82L750 39L712 66Z" fill="#161616" stroke="#161616"></path><path d="M23 526L71 527L57 461Z" fill="#090909" stroke="#090909"></path><path d="M57 461L71 527L85 475Z" fill="#242424" stroke="#242424"></path><path d="M126 552L72 600L168 600Z" fill="#000000" stroke="#000000"></path><path d="M212 0L141 0L162 55Z" fill="#2e2e2e" stroke="#2e2e2e"></path><path d="M73 75L48 124L127 142Z" fill="#1a1a1a" stroke="#1a1a1a"></path><path d="M73 75L127 142L123 83Z" fill="#383838" stroke="#383838"></path><path d="M0 228L0 309L70 238Z" fill="#383838" stroke="#383838"></path><path d="M73 49L73 75L123 83Z" fill="#161616" stroke="#161616"></path><path d="M776 515L824 462L736 436Z" fill="#000000" stroke="#000000"></path><path d="M750 39L723 0L712 66Z" fill="#000000" stroke="#000000"></path><path d="M0 228L70 238L50 202Z" fill="#090909" stroke="#090909"></path><path d="M33 394L0 422L57 461Z" fill="#1a1a1a" stroke="#1a1a1a"></path><path d="M0 309L0 336L43 335Z" fill="#000000" stroke="#000000"></path><path d="M851 446L854 376L808 395Z" fill="#333333" stroke="#333333"></path><path d="M833 363L860 322L813 341Z" fill="#2e2e2e" stroke="#2e2e2e"></path><path d="M776 515L822 484L824 462Z" fill="#000000" stroke="#000000"></path><path d="M824 462L851 446L808 395Z" fill="#242424" stroke="#242424"></path><path d="M842 541L822 484L776 515Z" fill="#161616" stroke="#161616"></path><path d="M854 376L860 322L833 363Z" fill="#292929" stroke="#292929"></path><path d="M863 228L829 129L795 196Z" fill="#1a1a1a" stroke="#1a1a1a"></path><path d="M0 199L0 228L50 202Z" fill="#000000" stroke="#000000"></path><path d="M141 0L117 0L162 55Z" fill="#292929" stroke="#292929"></path><path d="M773 82L783 38L750 39Z" fill="#1a1a1a" stroke="#1a1a1a"></path><path d="M750 39L783 38L723 0Z" fill="#1a1a1a" stroke="#1a1a1a"></path><path d="M863 228L823 252L836 256Z" fill="#333333" stroke="#333333"></path><path d="M0 336L0 401L33 394Z" fill="#1f1f1f" stroke="#1f1f1f"></path><path d="M117 0L73 49L123 83Z" fill="#101010" stroke="#101010"></path><path d="M73 75L0 85L48 124Z" fill="#161616" stroke="#161616"></path><path d="M0 135L0 199L50 202Z" fill="#101010" stroke="#101010"></path><path d="M900 252L863 228L836 256Z" fill="#1f1f1f" stroke="#1f1f1f"></path><path d="M829 129L810 84L778 136Z" fill="#1f1f1f" stroke="#1f1f1f"></path><path d="M0 135L50 202L48 124Z" fill="#292929" stroke="#292929"></path><path d="M0 401L0 422L33 394Z" fill="#2e2e2e" stroke="#2e2e2e"></path><path d="M900 344L900 326L860 322Z" fill="#000000" stroke="#000000"></path><path d="M854 488L851 446L824 462Z" fill="#383838" stroke="#383838"></path><path d="M810 84L783 38L773 82Z" fill="#1a1a1a" stroke="#1a1a1a"></path><path d="M681 600L770 600L739 525Z" fill="#242424" stroke="#242424"></path><path d="M822 484L854 488L824 462Z" fill="#242424" stroke="#242424"></path><path d="M770 600L802 566L739 525Z" fill="#000000" stroke="#000000"></path><path d="M770 600L776 600L802 566Z" fill="#090909" stroke="#090909"></path><path d="M117 0L57 43L73 49Z" fill="#292929" stroke="#292929"></path><path d="M73 49L57 43L73 75Z" fill="#292929" stroke="#292929"></path><path d="M829 129L843 112L810 84Z" fill="#2e2e2e" stroke="#2e2e2e"></path><path d="M810 84L834 40L783 38Z" fill="#1f1f1f" stroke="#1f1f1f"></path><path d="M900 146L843 112L829 129Z" fill="#090909" stroke="#090909"></path><path d="M0 527L23 526L57 461Z" fill="#090909" stroke="#090909"></path><path d="M71 527L72 600L126 552Z" fill="#101010" stroke="#101010"></path><path d="M34 600L72 600L71 527Z" fill="#101010" stroke="#101010"></path><path d="M0 85L0 135L48 124Z" fill="#090909" stroke="#090909"></path><path d="M842 541L854 488L822 484Z" fill="#161616" stroke="#161616"></path><path d="M900 344L860 322L854 376Z" fill="#000000" stroke="#000000"></path><path d="M900 344L854 376L900 423Z" fill="#242424" stroke="#242424"></path><path d="M860 322L900 252L836 256Z" fill="#2e2e2e" stroke="#2e2e2e"></path><path d="M863 228L900 146L829 129Z" fill="#101010" stroke="#101010"></path><path d="M900 423L854 376L851 446Z" fill="#000000" stroke="#000000"></path><path d="M900 326L900 252L860 322Z" fill="#242424" stroke="#242424"></path><path d="M802 566L842 541L776 515Z" fill="#090909" stroke="#090909"></path><path d="M900 468L900 423L851 446Z" fill="#000000" stroke="#000000"></path><path d="M859 600L842 541L802 566Z" fill="#000000" stroke="#000000"></path><path d="M900 252L900 228L863 228Z" fill="#383838" stroke="#383838"></path><path d="M0 422L0 527L57 461Z" fill="#1f1f1f" stroke="#1f1f1f"></path><path d="M23 526L34 600L71 527Z" fill="#242424" stroke="#242424"></path><path d="M57 43L0 85L73 75Z" fill="#292929" stroke="#292929"></path><path d="M900 78L834 40L843 112Z" fill="#333333" stroke="#333333"></path><path d="M843 112L834 40L810 84Z" fill="#292929" stroke="#292929"></path><path d="M783 38L814 0L723 0Z" fill="#2e2e2e" stroke="#2e2e2e"></path><path d="M900 468L851 446L854 488Z" fill="#242424" stroke="#242424"></path><path d="M0 558L34 600L23 526Z" fill="#292929" stroke="#292929"></path><path d="M834 40L814 0L783 38Z" fill="#333333" stroke="#333333"></path><path d="M0 527L0 558L23 526Z" fill="#242424" stroke="#242424"></path><path d="M900 228L900 146L863 228Z" fill="#101010" stroke="#101010"></path><path d="M834 40L824 0L814 0Z" fill="#000000" stroke="#000000"></path><path d="M900 497L900 468L854 488Z" fill="#383838" stroke="#383838"></path><path d="M900 0L824 0L834 40Z" fill="#292929" stroke="#292929"></path><path d="M117 0L27 0L57 43Z" fill="#2e2e2e" stroke="#2e2e2e"></path><path d="M57 43L0 33L0 85Z" fill="#1a1a1a" stroke="#1a1a1a"></path><path d="M900 574L900 497L842 541Z" fill="#161616" stroke="#161616"></path><path d="M842 541L900 497L854 488Z" fill="#000000" stroke="#000000"></path><path d="M27 0L0 33L57 43Z" fill="#000000" stroke="#000000"></path><path d="M0 558L0 600L34 600Z" fill="#090909" stroke="#090909"></path><path d="M776 600L859 600L802 566Z" fill="#1f1f1f" stroke="#1f1f1f"></path><path d="M900 146L900 78L843 112Z" fill="#161616" stroke="#161616"></path><path d="M27 0L0 0L0 33Z" fill="#161616" stroke="#161616"></path><path d="M900 78L900 55L834 40Z" fill="#292929" stroke="#292929"></path><path d="M859 600L900 574L842 541Z" fill="#101010" stroke="#101010"></path><path d="M859 600L900 600L900 574Z" fill="#242424" stroke="#242424"></path><path d="M900 55L900 0L834 40Z" fill="#000000" stroke="#000000"></path></g></svg>